<svg width="100%" height="100%" id="svg" viewBox="0 0 1440 390" xmlns="http://www.w3.org/2000/svg" class="transition duration-300 ease-in-out delay-150"><path d="M 0,400 C 0,400 0,100 0,100 C 145.07142857142856,83.10714285714286 290.1428571428571,66.21428571428571 408,78 C 525.8571428571429,89.78571428571429 616.5,130.25000000000003 718,130 C 819.5,129.74999999999997 931.8571428571429,88.78571428571428 1054,77 C 1176.142857142857,65.21428571428572 1308.0714285714284,82.60714285714286 1440,100 C 1440,100 1440,400 1440,400 Z" stroke="none" stroke-width="0" fill="#356b7a" fill-opacity="0.4" class="transition-all duration-300 ease-in-out delay-150 path-0"></path><path d="M 0,400 C 0,400 0,200 0,200 C 102.03571428571428,224.10714285714286 204.07142857142856,248.21428571428572 326,233 C 447.92857142857144,217.78571428571428 589.75,163.25000000000003 708,164 C 826.25,164.74999999999997 920.9285714285713,220.78571428571428 1039,236 C 1157.0714285714287,251.21428571428572 1298.5357142857142,225.60714285714286 1440,200 C 1440,200 1440,400 1440,400 Z" stroke="none" stroke-width="0" fill="#356b7a" fill-opacity="0.53" class="transition-all duration-300 ease-in-out delay-150 path-1"></path><path d="M 0,400 C 0,400 0,300 0,300 C 108.21428571428572,304.75 216.42857142857144,309.5 338,312 C 459.57142857142856,314.5 594.5,314.75 705,303 C 815.5,291.25 901.5714285714287,267.5 1020,265 C 1138.4285714285713,262.5 1289.2142857142858,281.25 1440,300 C 1440,300 1440,400 1440,400 Z" stroke="none" stroke-width="0" fill="#356b7a" fill-opacity="1" class="transition-all duration-300 ease-in-out delay-150 path-2"></path></svg>