<?xml version="1.0" standalone="no"?>
<!DOCTYPE svg PUBLIC "-//W3C//DTD SVG 20010904//EN"
 "http://www.w3.org/TR/2001/REC-SVG-20010904/DTD/svg10.dtd">
<svg version="1.0" xmlns="http://www.w3.org/2000/svg"
 width="183.000000pt" height="183.000000pt" viewBox="0 0 183.000000 183.000000"
 preserveAspectRatio="xMidYMid meet">

<g transform="translate(0.000000,183.000000) scale(0.100000,-0.100000)"
fill="#1e40af" stroke="none">
<path d="M883 1623 c-14 -32 -34 -91 -44 -132 -20 -79 -26 -216 -9 -226 6 -3
10 -1 10 5 0 15 160 11 161 -4 2 -35 18 38 18 86 2 106 -68 328 -102 328 -4 0
-20 -26 -34 -57z"/>
<path d="M355 1458 c16 -57 109 -227 145 -267 53 -57 110 -96 110 -75 0 8 18
33 40 55 34 34 43 39 55 29 13 -11 14 -10 9 4 -3 9 -1 16 6 16 14 0 -24 55
-64 93 -64 60 -203 138 -284 162 -21 6 -23 4 -17 -17z"/>
<path d="M1415 1456 c-110 -43 -220 -117 -269 -181 -33 -43 -33 -51 3 -70 16
-8 42 -33 58 -55 15 -22 31 -40 35 -40 4 0 25 17 48 38 22 22 40 36 40 33 0
-10 71 92 92 133 29 57 69 166 60 166 -4 -1 -34 -11 -67 -24z"/>
<path d="M995 1239 c-4 -6 -5 -12 -2 -15 2 -3 7 2 10 11 7 17 1 20 -8 4z"/>
<path d="M1096 1204 c-4 -9 -4 -19 -1 -22 3 -3 5 0 5 7 0 7 4 9 10 6 6 -3 7 1
4 9 -8 20 -10 20 -18 0z"/>
<path d="M865 1189 c-4 -6 -5 -12 -2 -15 2 -3 7 2 10 11 7 17 1 20 -8 4z"/>
<path d="M740 1171 c0 -6 4 -13 10 -16 6 -3 7 1 4 9 -7 18 -14 21 -14 7z"/>
<path d="M877 1157 c-3 -8 -2 -20 3 -26 5 -9 8 -4 8 13 0 29 -3 32 -11 13z"/>
<path d="M953 1145 c0 -8 4 -12 9 -9 5 3 6 10 3 15 -9 13 -12 11 -12 -6z"/>
<path d="M760 1131 c0 -6 4 -13 10 -16 6 -3 7 1 4 9 -7 18 -14 21 -14 7z"/>
<path d="M1200 1111 c0 -6 4 -13 10 -16 6 -3 7 1 4 9 -7 18 -14 21 -14 7z"/>
<path d="M750 1070 c0 -5 5 -10 10 -10 6 0 10 5 10 10 0 6 -4 10 -10 10 -5 0
-10 -4 -10 -10z"/>
<path d="M1116 1065 c-11 -8 -15 -15 -9 -15 6 0 16 7 23 15 16 19 11 19 -14 0z"/>
<path d="M1057 1049 c7 -7 15 -10 18 -7 3 3 -2 9 -12 12 -14 6 -15 5 -6 -5z"/>
<path d="M322 974 c-65 -17 -202 -73 -202 -83 0 -3 19 -15 43 -25 142 -63 331
-95 372 -62 11 8 14 16 8 16 -9 0 -13 20 -13 65 0 45 4 65 13 66 6 0 3 4 -8 9
-11 5 -14 9 -7 9 7 1 10 6 7 11 -9 15 -152 11 -213 -6z"/>
<path d="M1305 897 l0 -95 29 -6 c76 -16 205 10 325 65 l66 30 -40 21 c-85 44
-178 69 -280 75 l-100 6 0 -96z"/>
<path d="M642 944 c10 -10 20 -16 22 -13 3 3 -5 11 -17 18 -21 13 -21 12 -5
-5z"/>
<path d="M1154 924 c-18 -14 -18 -15 4 -4 12 6 22 13 22 15 0 8 -5 6 -26 -11z"/>
<path d="M692 907 c7 -8 19 -14 26 -14 11 0 10 4 -4 14 -10 7 -22 13 -26 13
-5 0 -3 -6 4 -13z"/>
<path d="M1114 899 c-3 -6 -2 -15 3 -20 5 -5 9 -1 9 11 0 23 -2 24 -12 9z"/>
<path d="M1150 870 c0 -5 9 -14 20 -20 11 -6 20 -7 20 -3 0 5 -9 14 -20 21
-11 7 -20 8 -20 2z"/>
<path d="M644 848 c10 -6 22 -6 26 -2 5 5 -3 10 -18 11 -22 1 -24 0 -8 -9z"/>
<path d="M1205 840 c-3 -5 -2 -10 4 -10 5 0 13 5 16 10 3 6 2 10 -4 10 -5 0
-13 -4 -16 -10z"/>
<path d="M1273 815 c0 -8 4 -12 9 -9 5 3 6 10 3 15 -9 13 -12 11 -12 -6z"/>
<path d="M1058 773 c7 -3 16 -2 19 1 4 3 -2 6 -13 5 -11 0 -14 -3 -6 -6z"/>
<path d="M700 760 c-9 -6 -10 -10 -3 -10 6 0 15 5 18 10 8 12 4 12 -15 0z"/>
<path d="M768 721 c-9 -22 -13 -42 -10 -46 3 -3 12 13 20 36 7 22 12 43 9 45
-2 2 -11 -14 -19 -35z"/>
<path d="M622 731 c-11 -7 -11 -9 0 -14 9 -3 15 1 15 9 0 8 -1 14 -1 14 -1 0
-7 -4 -14 -9z"/>
<path d="M1198 723 c7 -3 16 -2 19 1 4 3 -2 6 -13 5 -11 0 -14 -3 -6 -6z"/>
<path d="M1238 710 c6 -8 12 -19 12 -25 0 -17 -90 -105 -107 -105 -12 0 -11
-5 4 -31 36 -60 221 -177 310 -195 l31 -6 -14 41 c-43 126 -124 247 -200 300
-27 19 -43 28 -36 21z"/>
<path d="M561 685 c-72 -51 -163 -191 -197 -302 l-12 -41 26 8 c87 26 221 102
280 159 36 35 61 84 38 75 -21 -8 -107 86 -100 108 7 22 6 22 -35 -7z"/>
<path d="M885 660 c-3 -5 -1 -10 4 -10 6 0 11 5 11 10 0 6 -2 10 -4 10 -3 0
-8 -4 -11 -10z"/>
<path d="M970 600 c0 -5 5 -10 11 -10 5 0 7 5 4 10 -3 6 -8 10 -11 10 -2 0 -4
-4 -4 -10z"/>
<path d="M990 510 c-9 -5 -50 -7 -93 -6 l-77 2 0 -70 c0 -102 39 -243 88 -321
l12 -20 13 20 c43 70 87 226 86 310 -1 74 -8 97 -29 85z"/>
</g>
</svg>
