<svg xmlns="http://www.w3.org/2000/svg" xmlns:xlink="http://www.w3.org/1999/xlink" version="1.1" id="Layer_1" x="0px" y="0px" enable-background="new 0 0 288 272" xml:space="preserve" viewBox="22.83 18.44 224.52 225.22"><path fill="#1e40af" opacity="1.000000" stroke="none" d=" M176.412918,235.577393   C140.473953,248.904633 106.201942,245.912048 74.297073,225.522049   C45.408157,207.059540 27.768187,180.276321 23.811903,146.035126   C18.098448,96.585800 37.443302,58.554554 79.926163,32.952267   C117.218399,10.478106 169.269089,14.688040 203.559052,41.602791   C226.730240,59.790237 241.585892,83.245247 245.850342,112.234962   C252.270660,155.880356 238.011826,192.184250 203.533249,220.097778   C195.481033,226.616776 186.508926,231.745377 176.412918,235.577393  M87.316818,86.286247   C86.777138,89.557739 86.536011,92.912651 85.649017,96.087097   C80.153511,115.754601 63.899559,129.309097 43.543495,131.283493   C41.144497,131.516159 39.348824,131.705154 39.554588,134.910080   C40.871647,155.424164 47.577503,173.857452 60.290379,190.098022   C87.544380,224.914780 136.682632,236.010147 175.966202,217.138367   C207.349503,202.061890 234.334747,166.051208 229.909500,121.626610   C229.414413,116.656303 228.085800,115.208046 223.119598,115.258484   C198.958374,115.503853 174.786636,115.725700 150.631348,115.274956   C123.442566,114.767616 103.974037,101.776009 92.171661,77.230286   C91.065163,74.929077 91.047874,72.018906 88.174255,69.784576   C86.637421,75.230675 87.678711,80.344704 87.316818,86.286247  z"></path><path fill="#1e40af" opacity="1.000000" stroke="none" d=" M99.693527,157.578110   C93.253174,163.698776 86.612144,165.043350 79.857094,161.843277   C73.436432,158.801605 70.062172,152.607559 70.698730,145.031448   C71.234390,138.656326 75.715935,133.250931 82.109024,131.268982   C88.610832,129.253326 96.024597,131.571091 100.031364,136.872040   C104.598076,142.913788 104.560791,150.045837 99.693527,157.578110  z"></path><path fill="#1e40af" opacity="1.000000" stroke="none" d=" M190.348602,161.815857   C179.553650,165.517227 170.352997,161.467102 167.352448,152.036514   C164.541565,143.202057 169.247162,134.030380 177.996460,131.290314   C185.801834,128.845856 194.313736,132.459854 197.831131,139.711777   C201.733353,147.757141 198.999466,156.164719 190.348602,161.815857  z"></path></svg>