<svg version="1.1" id="Layer_1" xmlns="http://www.w3.org/2000/svg" xmlns:xlink="http://www.w3.org/1999/xlink" x="0px" y="0px"
	 width="100%" viewBox="0 0 288 272" enable-background="new 0 0 288 272" xml:space="preserve">
<path fill="#1e40af" opacity="1.000000" stroke="none" 
	d="
M33.543880,164.730469 
	C34.356655,163.047012 35.798656,161.483795 35.496391,160.412933 
	C33.842579,154.553864 37.888283,151.862076 41.422562,148.860092 
	C46.105564,144.882416 50.287807,140.241562 56.006035,137.608215 
	C66.107964,132.956085 76.145515,133.221313 85.588242,139.016815 
	C92.802132,143.444351 99.568092,148.626953 105.204575,155.054153 
	C106.373909,156.387543 107.673546,156.666473 109.186272,156.558853 
	C126.164627,155.350861 143.146347,157.027924 160.126938,156.505020 
	C162.109573,156.443954 163.342209,155.884293 164.757050,154.353638 
	C169.960831,148.723923 175.604523,143.401642 182.045776,139.305389 
	C192.657883,132.556747 203.835205,132.753159 214.685715,138.991760 
	C221.054382,142.653488 226.330383,147.860992 232.056320,152.425278 
	C233.386078,153.485291 234.725021,155.014893 234.198090,156.685715 
	C232.972305,160.572418 234.903336,163.336792 236.781250,166.294189 
	C238.156128,168.459381 238.380325,170.959854 238.376312,173.510162 
	C238.347961,191.508286 238.362976,209.506516 238.378326,227.504700 
	C238.381149,230.826859 238.333084,234.255646 233.786118,234.243744 
	C229.371765,234.232193 228.907440,230.666626 228.880463,227.493881 
	C228.752960,212.499008 228.823593,197.502457 228.823593,181.979294 
	C227.188461,187.893799 225.910782,193.375443 224.142944,198.694153 
	C221.886398,205.483093 217.564301,209.590988 213.396790,209.014343 
	C207.068588,208.138702 205.475922,203.064514 204.351349,197.874283 
	C203.613647,194.469528 203.262192,190.982941 202.637604,187.551224 
	C202.171265,184.989075 201.990585,182.233856 199.171295,180.574875 
	C195.752457,182.324478 195.997208,185.784821 195.416565,188.721909 
	C194.580246,192.952286 194.087387,197.249313 193.354187,201.501724 
	C192.658585,205.536148 190.268341,208.186447 186.237778,208.901016 
	C182.062210,209.641266 179.213135,207.262848 177.144531,204.005066 
	C173.308701,197.964142 172.282104,190.957916 170.716400,184.159866 
	C169.672546,179.627548 168.732529,175.067078 167.906616,170.490250 
	C167.341431,167.358109 165.768860,165.949005 162.485214,165.963226 
	C143.987473,166.043365 125.488617,166.080215 106.991615,165.938629 
	C103.296463,165.910339 102.047485,167.754684 101.412132,170.864990 
	C99.583496,179.816696 98.165802,188.866074 95.243858,197.565094 
	C94.395218,200.091599 93.568825,202.633621 91.857445,204.755692 
	C89.672470,207.465042 87.128311,209.563400 83.363937,208.935699 
	C79.693848,208.323715 77.496971,205.819824 76.359528,202.501144 
	C74.900665,198.244675 74.252182,193.791580 73.597183,189.337814 
	C73.136688,186.206573 73.182846,182.673096 69.580864,180.506088 
	C65.387383,185.068604 66.721878,190.793793 65.414932,195.761215 
	C64.911270,197.675507 64.743828,199.675705 64.313049,201.612274 
	C63.443989,205.519180 61.309002,208.483032 57.147099,208.935120 
	C53.135063,209.370941 50.125126,207.182526 47.985023,203.927353 
	C45.854370,200.686554 44.827923,196.966476 43.799717,193.272736 
	C43.050423,190.580948 42.371586,187.869553 41.001095,185.239990 
	C41.001095,197.834625 41.011532,210.429260 40.990364,223.023865 
	C40.987007,225.019745 40.999084,227.037460 40.723724,229.005890 
	C40.324680,231.858521 39.063511,234.343140 35.723587,234.124496 
	C32.572235,233.918182 31.081020,231.582214 30.982866,228.631256 
	C30.811214,223.470596 30.874956,218.301575 30.870079,213.136032 
	C30.858591,200.970551 30.856197,188.805069 30.868696,176.639603 
	C30.872833,172.612488 31.280767,168.660599 33.543880,164.730469 
M50.194706,175.549438 
	C51.769169,182.144714 52.364868,189.011749 55.663754,196.299393 
	C57.161751,189.902847 56.904072,184.306992 58.867119,179.162140 
	C61.736042,171.643097 68.051552,168.623260 74.696899,171.617599 
	C80.856644,174.393097 82.038696,180.215790 83.278564,185.927444 
	C83.959061,189.062286 84.354256,192.259064 84.878105,195.427902 
	C89.119560,187.941666 89.825356,179.778336 91.531609,171.916565 
	C92.547295,167.236664 96.674782,162.231018 93.526535,157.799057 
	C90.655067,153.756760 85.897362,150.950546 81.706192,147.972183 
	C74.157707,142.608002 64.832054,142.726059 57.417343,147.930817 
	C45.653435,156.188461 45.571781,156.403275 48.790951,169.396622 
	C49.229427,171.166412 49.586662,172.956329 50.194706,175.549438 
M187.541153,180.404358 
	C190.211166,173.110107 192.828659,170.792404 198.526535,170.677124 
	C204.308228,170.560150 207.960129,173.017532 210.236954,178.909424 
	C211.187439,181.369003 211.606628,184.028687 212.389252,186.559723 
	C213.267654,189.400528 212.629822,192.640671 214.741119,196.020477 
	C215.555557,193.581711 216.263870,191.908707 216.670685,190.165359 
	C218.480515,182.409515 220.144211,174.619400 221.973907,166.868393 
	C224.263855,157.167709 225.377502,159.896561 217.611832,153.285049 
	C215.586685,151.560883 213.461227,149.950714 211.337021,148.347549 
	C207.334030,145.326431 202.832001,144.075638 197.794159,144.154312 
	C187.831146,144.309921 182.187881,151.499619 175.824707,157.449066 
	C174.370712,158.808533 175.493652,160.890488 175.929291,162.669083 
	C177.468811,168.954636 178.918793,175.262207 180.387360,181.565018 
	C181.463806,186.184814 182.156754,190.918060 184.636978,196.317551 
	C185.636429,190.546188 186.448227,185.858505 187.541153,180.404358 
z"/>
<path fill="#1e40af" opacity="1.000000" stroke="none" 
	d="
M163.825958,30.915775 
	C166.279419,33.348473 168.119003,33.680233 170.895126,31.453245 
	C176.792038,26.722786 183.654556,26.063990 190.701126,28.631544 
	C196.175522,30.626247 201.620300,31.726240 207.208740,29.330568 
	C226.710220,20.970612 242.402405,39.023952 238.941116,58.387539 
	C238.678436,59.857063 238.239883,61.296249 237.860672,62.743668 
	C234.416260,75.890320 234.052963,76.105911 220.535172,75.341698 
	C217.479752,75.168961 215.171387,74.134537 214.882446,70.947754 
	C214.579834,67.610229 217.077362,66.423927 219.870529,65.773453 
	C222.343964,65.197433 225.994400,67.113091 227.163651,64.130615 
	C229.147858,59.069405 230.585175,53.700119 229.060989,48.060188 
	C226.643677,39.115467 220.011917,34.968430 211.959671,37.916004 
	C204.480515,40.653801 197.174850,41.184757 189.554916,38.453480 
	C180.000259,35.028725 173.850266,38.526196 171.023163,48.344097 
	C169.556091,53.438892 170.968292,58.216812 172.083115,63.058666 
	C172.656174,65.547539 174.625519,65.792206 176.752625,65.826141 
	C179.576126,65.871178 182.426544,65.828133 185.211197,66.213989 
	C187.539719,66.536644 189.141525,68.052628 189.217606,70.613266 
	C189.293167,73.156578 187.803360,74.720261 185.519653,75.292717 
	C183.607361,75.772057 181.576736,75.962677 179.598038,75.965691 
	C156.457748,76.000923 133.317368,75.977402 110.177010,75.967430 
	C88.708633,75.958183 67.240211,75.969559 45.771904,75.924988 
	C36.854099,75.906479 36.290615,75.366287 33.690334,66.684814 
	C31.453506,59.216785 30.631960,51.703228 32.739437,44.087017 
	C36.356350,31.015881 48.796890,24.284739 61.596546,28.823175 
	C68.074196,31.119986 73.993294,31.077240 80.447495,28.478958 
	C88.642975,25.179686 96.091400,27.985949 102.519241,33.258774 
	C104.255569,33.358940 105.118652,32.206947 106.171524,31.447517 
	C112.288223,27.035582 118.911301,25.818817 125.976082,28.658297 
	C132.146515,31.138321 138.091904,31.267252 144.394089,28.844204 
	C150.910370,26.338839 157.472092,26.790598 163.825958,30.915775 
M41.290585,53.496639 
	C41.318382,54.662369 41.275452,55.834812 41.385345,56.992748 
	C42.153130,65.082825 42.996868,65.848541 51.147663,65.849243 
	C64.307610,65.850365 77.467575,65.847710 90.627487,65.821770 
	C97.830551,65.807571 98.329964,65.316940 99.539917,58.203674 
	C102.025406,43.591579 93.053932,32.166664 77.905296,39.176811 
	C72.659576,41.604309 66.802498,40.746105 61.291641,38.801846 
	C49.434227,34.618496 41.594913,40.037544 41.290585,53.496639 
M158.539810,39.820347 
	C155.010391,36.797977 150.902924,36.400677 146.814667,37.978245 
	C138.798935,41.071350 130.936874,41.136189 123.012329,37.838169 
	C121.129532,37.054588 119.122849,37.024498 117.108376,37.225266 
	C110.980370,37.835991 108.287964,41.520538 109.099823,47.563259 
	C109.652458,51.676495 109.987709,55.965374 108.852448,59.974403 
	C107.547554,64.582481 108.978386,65.935112 113.530014,65.881439 
	C127.848610,65.712608 142.170410,65.829926 156.490753,65.774574 
	C158.068802,65.768478 159.861191,66.282303 161.368195,64.474571 
	C160.517014,58.640781 159.424530,52.522617 160.939133,46.488308 
	C161.613251,43.802559 160.995102,41.984684 158.539810,39.820347 
z"/>
<path fill="#1e40af" opacity="1.000000" stroke="none" 
	d="
M135.002258,83.682724 
	C140.084824,84.293304 139.958023,87.997513 140.025757,91.249283 
	C140.191788,99.222786 140.099411,107.201683 140.109924,115.178406 
	C140.112289,116.971558 140.110291,118.764709 140.110291,120.498863 
	C142.520248,120.956451 143.105804,119.135338 144.352203,118.493996 
	C146.652817,117.310219 148.820969,117.220428 150.712006,119.199356 
	C152.468460,121.037460 152.546402,123.212624 151.025497,125.091072 
	C147.153885,129.872864 142.766953,134.191391 138.006546,138.078262 
	C135.538208,140.093674 133.056183,139.346909 130.902100,137.172531 
	C127.394577,133.631973 123.816498,130.160675 120.340988,126.589310 
	C118.265472,124.456543 116.514847,122.079132 119.255920,119.273529 
	C121.766632,116.703720 124.298187,117.463921 126.728973,119.578766 
	C127.331177,120.102692 128.083191,120.454437 128.776871,120.891968 
	C130.546066,119.502609 129.845932,117.707588 129.861084,116.178619 
	C129.945114,107.704124 129.846268,99.227676 129.950928,90.753632 
	C129.990707,87.532722 130.315842,84.257294 135.002258,83.682724 
z"/>
<path fill="#1e40af" opacity="1.000000" stroke="none" 
	d="
M198.159210,73.963425 
	C196.052216,70.923233 196.726212,68.634003 199.295975,66.892563 
	C201.168076,65.623901 203.113297,65.940781 204.687820,67.508583 
	C206.383621,69.197159 206.903885,71.243187 205.360001,73.275383 
	C203.444855,75.796265 201.033600,75.963760 198.159210,73.963425 
z"/>
</svg>