<svg xmlns="http://www.w3.org/2000/svg" xmlns:xlink="http://www.w3.org/1999/xlink" style="margin:auto;background:#f1f2f3;display:block;z-index:1;position:relative" width="875" height="636" preserveAspectRatio="xMidYMid" viewBox="0 0 875 636">
  <g transform="translate(437.5,318) scale(1,1) translate(-437.5,-318)"><g transform="translate(679.4849725400552,130.29721481877598) scale(100)" opacity="0.67">
    <path d="M2.970625 0 C2.970625 0.704375 3.0839563830625387 0.9671808562093358 2.731768883062539 1.5771874999999997 S2.095319143790664 2.220449215117148 1.4853125000000003 2.572636715117148 S0.7043750000000002 3.154375 1.9314976235302162e-16 3.154375 S-0.8753058562093354 2.924824215117148 -1.4853124999999994 2.5726367151171483 S-2.3795813830625376 2.187194143790665 -2.731768883062538 1.577187500000001 S-2.970625 0.7043750000000003 -2.970625 3.6379663977171063e-16 S-3.083956383062539 -0.967180856209335 -2.7317688830625393 -1.577187499999999 S-2.095319143790665 -2.220449215117147 -1.4853125000000014 -2.5726367151171474 S-0.7043750000000005 -3.154375 -5.794492870590648e-16 -3.154375 S0.8753058562093338 -2.9248242151171486 1.485312499999998 -2.572636715117149 S2.3795813830625376 -2.187194143790665 2.731768883062538 -1.5771875000000013 S2.970625 -0.7043750000000008 2.970625 -7.275932795434213e-16" fill="#172554" stroke-width="0">
      <animateTransform attributeName="transform" type="rotate" dur="10s" repeatCount="indefinite" values="0;60"></animateTransform>
    </path>
  </g><g transform="translate(727.8819670480661,92.75665778253119) scale(100)" opacity="0.67">
    <path d="M3.5647499999999996 0 C3.5647499999999996 0.84525 3.700747659675047 1.1606170274512029 3.278122659675047 1.8926249999999998 S2.514382972548797 2.6645390581405772 1.7823750000000003 3.0871640581405773 S0.8452500000000002 3.78525 2.3177971482362593e-16 3.78525 S-1.0503670274512023 3.5097890581405773 -1.782374999999999 3.0871640581405777 S-2.855497659675046 2.624632972548798 -3.278122659675046 1.8926250000000013 S-3.5647499999999996 0.8452500000000004 -3.5647499999999996 4.365559677260527e-16 S-3.700747659675047 -1.160617027451202 -3.2781226596750472 -1.892624999999999 S-2.514382972548798 -2.6645390581405763 -1.7823750000000014 -3.087164058140577 S-0.8452500000000006 -3.78525 -6.953391444708778e-16 -3.78525 S1.0503670274512005 -3.509789058140578 1.7823749999999974 -3.0871640581405786 S2.855497659675045 -2.624632972548798 3.2781226596750455 -1.8926250000000018 S3.5647499999999996 -0.8452500000000008 3.5647499999999996 -8.731119354521054e-16" fill="#193380" stroke-width="0">
      <animateTransform attributeName="transform" type="rotate" dur="5s" repeatCount="indefinite" values="0;60"></animateTransform>
    </path>
  </g><g transform="translate(844.0347538672927,2.659320895543658) scale(100)" opacity="0.67">
    <path d="M4.99065 0 C4.99065 1.18335 5.181046723545064 1.6248638384316838 4.589371723545065 2.6496749999999993 S3.5201361615683155 3.730354681396808 2.4953250000000002 4.322029681396808 S1.1833500000000001 5.29935 3.244916007530763e-16 5.29935 S-1.4705138384316834 4.913704681396808 -2.495324999999999 4.322029681396809 S-3.9976967235450633 3.674486161568317 -4.589371723545064 2.6496750000000016 S-4.99065 1.1833500000000006 -4.99065 6.111783548164738e-16 S-5.181046723545065 -1.624863838431683 -4.5893717235450655 -2.6496749999999984 S-3.520136161568317 -3.7303546813968076 -2.495325000000002 -4.322029681396808 S-1.1833500000000008 -5.29935 -9.734748022592287e-16 -5.29935 S1.470513838431681 -4.91370468139681 2.4953249999999967 -4.322029681396811 S3.9976967235450624 -3.674486161568317 4.589371723545063 -2.649675000000002 S4.99065 -1.1833500000000012 4.99065 -1.2223567096329476e-15" fill="#1e40af" stroke-width="0">
      <animateTransform attributeName="transform" type="rotate" dur="3.3333333333333335s" repeatCount="indefinite" values="0;60"></animateTransform>
    </path>
  </g></g>
  </svg>