<svg version="1.1" id="Layer_1" xmlns="http://www.w3.org/2000/svg"
	xmlns:xlink="http://www.w3.org/1999/xlink" x="0px" y="0px"
	width="100%" viewBox="" enable-background="" xml:space="preserve">
<path
	fill="transparent" opacity="1.000000" stroke="none" 
	d="
M38.000000,81.000000 
	C25.333334,81.000000 13.166667,81.000000 1.000000,81.000000 
	C1.000000,54.333332 1.000000,27.666666 1.000000,1.000000 
	C26.000000,1.000000 51.000000,1.000000 76.000000,1.000000 
	C76.000000,27.666666 76.000000,54.333332 76.000000,81.000000 
	C63.500000,81.000000 51.000000,81.000000 38.000000,81.000000 
M18.897465,7.003781 
	C5.963761,11.987052 5.870771,23.999056 4.005213,35.055485 
	C6.932662,31.864931 9.085684,28.236235 11.108234,24.536217 
	C16.935520,13.875881 18.036802,11.380352 28.965586,20.313021 
	C32.137096,22.905262 35.961884,23.302431 38.969135,19.522156 
	C40.789085,17.234379 42.080685,14.373511 44.270321,12.574009 
	C46.630665,10.634209 50.293991,7.911102 52.447681,8.576426 
	C57.084900,10.008962 60.407902,14.030167 62.736191,18.616993 
	C59.982716,19.019770 57.860332,19.235462 55.777702,19.650581 
	C44.100800,21.978071 34.868805,28.841097 25.638950,35.793827 
	C18.486626,41.181580 12.659096,42.862652 5.378538,36.219643 
	C5.220125,36.075100 4.766790,36.253784 4.456072,36.281242 
	C1.316636,49.412239 11.679087,69.057503 22.388762,75.535934 
	C30.034210,80.160767 39.229877,79.400154 40.892021,68.399628 
	C41.750381,62.718758 41.606285,56.890659 42.030819,51.137619 
	C42.172813,49.213459 42.500744,47.260838 43.082981,45.429073 
	C43.375996,44.507233 44.357700,43.289318 45.157009,43.183937 
	C46.006668,43.071911 47.351189,43.891537 47.884602,44.697933 
	C50.031464,47.943485 52.133575,51.246468 53.903049,54.706783 
	C56.113483,59.029430 57.578457,63.784309 60.167740,67.840294 
	C61.429756,69.817184 64.443390,71.445312 66.799263,71.646133 
	C68.073044,71.754715 70.194794,68.746155 70.963692,66.766899 
	C74.326683,58.110146 72.683861,49.104832 72.935966,40.229553 
	C72.372925,40.109436 71.809891,39.989323 71.246849,39.869205 
	C69.517220,47.997726 67.787598,56.126247 66.057968,64.254768 
	C65.537834,64.191643 65.017700,64.128510 64.497574,64.065384 
	C63.799156,62.998535 62.971851,61.993698 62.423740,60.854530 
	C59.398048,54.566105 56.568787,48.179592 53.404488,41.962967 
	C51.861702,38.931980 50.106705,35.836998 45.803558,35.969090 
	C41.535519,36.100105 39.017277,38.513042 38.023987,42.244244 
	C36.987885,46.136253 36.658253,50.215065 35.996639,54.208378 
	C35.254375,58.688457 34.774513,63.239372 33.633808,67.617020 
	C32.792255,70.846649 30.789068,72.652031 27.695059,69.239189 
	C27.175110,68.665665 26.282480,68.447487 25.681931,67.926842 
	C19.656534,62.703094 14.801248,56.787624 13.954690,48.707680 
	C15.771828,47.615147 17.188105,46.835583 18.530687,45.944927 
	C28.539881,39.304958 38.112457,31.855598 48.651142,26.207119 
	C59.407391,20.442026 61.999294,19.810978 69.124123,27.875935 
	C68.628937,24.671253 68.535683,22.530731 67.946175,20.536936 
	C66.074028,14.205153 63.611759,8.109842 57.316998,4.850871 
	C50.765976,1.459230 42.066895,4.510696 37.070354,11.656548 
	C34.030148,16.004536 32.100204,16.310207 29.574696,11.862175 
	C27.198683,7.677446 23.770044,7.064731 18.897465,7.003781 
z"/>
<path fill="#5AC3E0" opacity="1.000000" stroke="none" 
	d="
M19.312754,7.002135 
	C23.770044,7.064731 27.198683,7.677446 29.574696,11.862175 
	C32.100204,16.310207 34.030148,16.004536 37.070354,11.656548 
	C42.066895,4.510696 50.765976,1.459230 57.316998,4.850871 
	C63.611759,8.109842 66.074028,14.205153 67.946175,20.536936 
	C68.535683,22.530731 68.628937,24.671253 69.124123,27.875935 
	C61.999294,19.810978 59.407391,20.442026 48.651142,26.207119 
	C38.112457,31.855598 28.539881,39.304958 18.530687,45.944927 
	C17.188105,46.835583 15.771828,47.615147 13.954690,48.707680 
	C14.801248,56.787624 19.656534,62.703094 25.681931,67.926842 
	C26.282480,68.447487 27.175110,68.665665 27.695059,69.239189 
	C30.789068,72.652031 32.792255,70.846649 33.633808,67.617020 
	C34.774513,63.239372 35.254375,58.688457 35.996639,54.208378 
	C36.658253,50.215065 36.987885,46.136253 38.023987,42.244244 
	C39.017277,38.513042 41.535519,36.100105 45.803558,35.969090 
	C50.106705,35.836998 51.861702,38.931980 53.404488,41.962967 
	C56.568787,48.179592 59.398048,54.566105 62.423740,60.854530 
	C62.971851,61.993698 63.799156,62.998535 64.497574,64.065384 
	C65.017700,64.128510 65.537834,64.191643 66.057968,64.254768 
	C67.787598,56.126247 69.517220,47.997726 71.246849,39.869205 
	C71.809891,39.989323 72.372925,40.109436 72.935966,40.229553 
	C72.683861,49.104832 74.326683,58.110146 70.963692,66.766899 
	C70.194794,68.746155 68.073044,71.754715 66.799263,71.646133 
	C64.443390,71.445312 61.429756,69.817184 60.167740,67.840294 
	C57.578457,63.784309 56.113483,59.029430 53.903049,54.706783 
	C52.133575,51.246468 50.031464,47.943485 47.884602,44.697933 
	C47.351189,43.891537 46.006668,43.071911 45.157009,43.183937 
	C44.357700,43.289318 43.375996,44.507233 43.082981,45.429073 
	C42.500744,47.260838 42.172813,49.213459 42.030819,51.137619 
	C41.606285,56.890659 41.750381,62.718758 40.892021,68.399628 
	C39.229877,79.400154 30.034210,80.160767 22.388762,75.535934 
	C11.679087,69.057503 1.316636,49.412239 4.456072,36.281242 
	C4.766790,36.253784 5.220125,36.075100 5.378538,36.219643 
	C12.659096,42.862652 18.486626,41.181580 25.638950,35.793827 
	C34.868805,28.841097 44.100800,21.978071 55.777702,19.650581 
	C57.860332,19.235462 59.982716,19.019770 62.736191,18.616993 
	C60.407902,14.030167 57.084900,10.008962 52.447681,8.576426 
	C50.293991,7.911102 46.630665,10.634209 44.270321,12.574009 
	C42.080685,14.373511 40.789085,17.234379 38.969135,19.522156 
	C35.961884,23.302431 32.137096,22.905262 28.965586,20.313021 
	C18.036802,11.380352 16.935520,13.875881 11.108234,24.536217 
	C9.085684,28.236235 6.932662,31.864931 4.005213,35.055485 
	C5.870771,23.999056 5.963761,11.987052 19.312754,7.002135 
z"/>
</svg>